<?xml version="1.0" encoding="UTF-8"?>
<svg id="Capa_1" data-name="Capa 1" xmlns="http://www.w3.org/2000/svg" viewBox="0 0 1952 364">
  <defs>
    <style>
      .cls-1 {
        fill: #899663;
        opacity: .7;
      }

      .cls-1, .cls-2, .cls-3 {
        stroke-width: 0px;
      }

      .cls-2 {
        fill: #fdd258;
      }

      .cls-3 {
        fill: #d3884a;
        opacity: .73;
      }
    </style>
  </defs>
  <path class="cls-2" d="M427.52,253.8s140.86-17.79,211.85-8.79,99.91,21,143.29,34,92.02,22,111.74,28,69.67,10,89.39,13,53.9,8.98,80.19,11.49c26.29,2.51,45.97,3.44,72.94,8.98,26.97,5.54,239.65,27.71,148.5,24.73-5.85-.19-1287.59-1.19-1287.59-1.19,0,0,323-92.43,429.68-110.21Z"/>
  <path class="cls-3" d="M.47,143.59l-2.63,220.43h1952.16s-69.73-23.12-108.8-34.81c-39.07-11.69-69.9-20.18-85.38-24.44-15.48-4.26-32.04-7.31-54-10.78-21.96-3.47-33.79-.47-54.82.53-21.03,1-39.44,8-57.84,10s-42.07,8-61.79,14c-19.72,6-40.75,9-55.21,12s-34.18,6-53.9,10c-19.72,4-44.7,8-65.73,10-21.03,2-32.87,2-55.21,3-22.35,1-23.66,4-61.79,5s-42.07,1-81.51,1-17.09-5-68.36,0c-51.27,5-93.95-2.96-115.34-2.48-21.38.48-22.4-4.17-52.79-4.84-30.38-.68-35.64-5.68-72.45-8.68s-36.81-4-69.67-9c-32.87-5-68.36-8-93.34-15-24.98-7-59.16-11-78.88-16-19.72-5-56.72-10.77-76.34-17.88-19.62-7.12-51.17-15.12-74.83-22.12-23.66-7-39.44-12-60.47-19-21.03-7-61.79-25-73.62-30s-35.49-15-59.16-23c-23.66-8-35.49-10-60.47-17s-40.75-12-63.1-17S26.1,143.67.47,143.59Z"/>
  <path class="cls-1" d="M-2.16,364.02L.47,207.25s106.27.66,181.31,10.21c75.04,9.55,127.62,22.55,171,34.55,43.38,12,92.87,26.82,134.09,40,45.35,14.5,69.6,17.9,110.72,27.7,41.12,9.8,126.17,22.47,126.17,22.47,0,0,37.01,4.08,72.56,6.13,38.27,2.2,98.67,3.84,131.59,3.96,20.79.08,53.91-1.76,82.84-3.76s109.11-6,148.55-10,101.22-12,136.72-19c30.75-6.06,90.71-15,120.94-22,29.89-6.92,60.33-13.28,109.69-15.88,40.18-2.12,106.18,2.29,159.81,10,61.79,8.88,98.36,20.73,130.15,29.88,32.28,9.3,126.24,42.5,126.24,42.5H-2.16Z"/>
</svg>