<?xml version="1.0" encoding="UTF-8"?>
<svg id="Capa_1" data-name="Capa 1" xmlns="http://www.w3.org/2000/svg" viewBox="0 0 860 180">
  <defs>
    <style>
      .cls-1 {
        fill: #899663;
        opacity: .73;
      }

      .cls-1, .cls-2 {
        stroke-width: 0px;
      }

      .cls-2 {
        fill: #fdd258;
        opacity: .7;
      }
    </style>
  </defs>
  <path class="cls-2" d="M1,5.25L0,180c97-.67,249-5,287,0,0,0,116,1,116,1,0,0,159-1,159-1-112-100-210,20.67-366.06-93.1-31.57-23.01-64.06-39.7-100.94-56.23C66,17.67,1,5.25,1,5.25Z"/>
  <path class="cls-1" d="M0,45.31v134.69h347l180.36.67,332.64-.67s-153-76-238-74.33c-60.02,1.18-156,32-245,40C279.83,154.4,154.59,117.1,0,45.31Z"/>
</svg>