<?xml version="1.0" encoding="UTF-8"?>
<svg id="Capa_1" data-name="Capa 1" xmlns="http://www.w3.org/2000/svg" viewBox="0 0 1952 364">
  <defs>
    <style>
      .cls-1 {
        fill: #899663;
        opacity: .7;
      }

      .cls-1, .cls-2 {
        stroke-width: 0px;
      }

      .cls-2 {
        fill: #d3884a;
        opacity: .73;
      }
    </style>
  </defs>
  <path class="cls-2" d="M1949.44,148.47l2.65,220.43-1449.09-4.9c88.97-29.28,148-57,200-57,74.01,0,247.9,54.44,269.44,54.92s22.57-4.17,53.17-4.84c30.61-.68,35.9-5.68,72.98-8.68,37.08-3,37.08-4,70.19-9,33.11-5,68.86-8,94.02-15,25.16-7,59.59-11,79.46-16,19.86-5,57.14-10.77,76.91-17.88,19.77-7.12,51.55-15.12,75.38-22.12,23.84-7,39.73-12,60.92-19,21.19-7,62.24-25,74.16-30,11.92-5,35.76-15,59.59-23,23.84-8,35.76-10,60.92-17,25.16-7,41.05-12,63.56-17,22.51-5,109.91-13.85,135.74-13.93Z"/>
  <path class="cls-1" d="M505,364s78-39,131.79-39.64c38.87-.46,93.21,32.64,149.43,22.47,75.32-13.62,185.61-60.05,274.77-41.83,279,57,281.74-66,396-66,131.3,0,107.08,33.02,176,57.28,67.16,23.64,127.65-13.25,222.32-6.36,96.22,7,145.53,79,145.53,79l-1495.85-4.91Z"/>
</svg>