<?xml version="1.0" encoding="UTF-8"?>
<svg id="Capa_1" data-name="Capa 1" xmlns="http://www.w3.org/2000/svg" viewBox="0 0 1952 364">
  <defs>
    <style>
      .cls-1 {
        fill: #899663;
      }

      .cls-1, .cls-2, .cls-3 {
        stroke-width: 0px;
      }

      .cls-1, .cls-3 {
        opacity: .7;
      }

      .cls-2 {
        fill: #d3884a;
        opacity: .73;
      }

      .cls-3 {
        fill: #fdd258;
      }
    </style>
  </defs>
  <g>
    <path class="cls-2" d="M873.02,366.49s81.71-76.8,189.59-91.97c97.62-13.73,200.97,16.47,284.87,45.98,83.9,29.51,204.29,15.59,220.08,17.16,27.72,2.75,102.44,27.45,102.44,27.45l-796.98,1.37Z"/>
    <path class="cls-3" d="M1952,365.12v-99.19s-21.69,4.47-90.38-16.12c-33.94-10.17-78.39-37.11-125.33-39.81-59.65-3.43-117.31,25.98-158.47,36.38-42.4,10.71-79.54,31.57-145.82,49.42-40.08,10.79-63.27,15.79-110.27,18.53-56.57,3.3-157.96-16.66-226.56,1.37-47,12.35-115.69,49.42-115.69,49.42h972.54Z"/>
    <path class="cls-1" d="M1952,365.12v-192.59c-73.51-24.3-220.54-.96-294.05,56.69-38.66,30.32-79.94,64.43-109.67,80.99-54.23,30.2-158,54.91-165.77,54.91s569.49,0,569.49,0Z"/>
  </g>
  <g>
    <path class="cls-2" d="M1285.67,365.18h-103.39s-68.33,2.75-112.92,0c-48.17-2.97-151.85,0-151.85,0,0,0-316.95-5.49-337.44,0-20.49,5.49,237.41-28.83,237.41-28.83,0,0,177.15-42.55,212.1-49.42s61.38-1.37,82.51,0c21.13,1.37,56.57,11.01,70.18,14.43,13.61,3.42,57.87,24.01,68.28,34.99,10.41,10.98,35.1,28.83,35.1,28.83Z"/>
    <path class="cls-3" d="M-.8,365.18h1185.86s-79.55-35.69-125.34-42.55c-45.79-6.86-103.56,0-103.56,0,0,0-58.45,14.41-88.62,13.73-30.17-.69-69.08,4.55-93.44,6.86-28.92,2.75-66.29,11.25-109.06,10.3-30.73-.69-68.67-5.8-116.88-11.13-48.22-5.34-121.13-30.5-121.13-30.5l-62.06-22.88-59.05-16.47s-26.46-5.49-75.29,0c-48.83,5.49-88.6,17.84-88.6,17.84,0,0-36.85,17.46-73.86,27.26C31.14,327.43.41,326.6.41,326.6l-1.21,38.58Z"/>
    <path class="cls-1" d="M.41,184.8l-1.21,142.44s59.76-3.24,87.97-15.6c47-20.59,133.78-38.32,149.44-39.81,14.46-1.37,32.62-2.28,61.46,1.37,21.69,2.75,47,8.24,73.51,19.22,26.51,10.98,48.21,19.22,83.15,30.2,34.66,10.89,69.27,16,92.79,19.22,15.92,2.18,48.21,5.49,63.87,6.86,15.37,1.35,34.95,6.86,61.46,5.49,34.1-1.77,87.59-8.24,87.59-8.24l49.79-8.24s-84.36-16.47-163.9-37.06c-79.54-20.59-142.21-38.43-169.92-42.55-27.72-4.12-69.29-14.41-130.76-14.41-61.46,0-84.36,6.86-133.77,0-49.41-6.86-71.1-9.61-101.23-19.22C80.55,214.87.41,184.8.41,184.8Z"/>
  </g>
</svg>