<?xml version="1.0" encoding="utf-8"?>
<!-- Generator: Adobe Illustrator 28.4.1, SVG Export Plug-In . SVG Version: 6.00 Build 0)  -->
<svg version="1.1" id="Capa_1" xmlns="http://www.w3.org/2000/svg" xmlns:xlink="http://www.w3.org/1999/xlink" x="0px" y="0px"
	 viewBox="0 0 905 148" style="enable-background:new 0 0 905 148;" xml:space="preserve">
<style type="text/css">
	.st0{fill:#F7EAE4;}
	.st1{clip-path:url(#SVGID_00000054258461490293726800000016826867705256855179_);fill:#F7EAE4;}
	.st2{filter:url(#Adobe_OpacityMaskFilter);}
	
		.st3{clip-path:url(#SVGID_00000054258461490293726800000016826867705256855179_);fill:url(#SVGID_00000013166851335708554650000004702530281200173245_);}
	.st4{opacity:0.7;clip-path:url(#SVGID_00000054258461490293726800000016826867705256855179_);fill:#FDD258;}
	.st5{opacity:0.73;clip-path:url(#SVGID_00000054258461490293726800000016826867705256855179_);fill:#899663;}
	.st6{opacity:0.73;clip-path:url(#SVGID_00000054258461490293726800000016826867705256855179_);fill:#D3884A;}
	.st7{opacity:0.7;clip-path:url(#SVGID_00000054258461490293726800000016826867705256855179_);fill:#899663;}
	.st8{fill:#FFFFFF;}
	.st9{fill:#607E3E;}
	.st10{fill:#EAD9D0;}
	.st11{fill:#84A135;}
	.st12{fill:#809E34;}
	.st13{fill:#203B0B;}
	.st14{fill:#1E592C;}
	.st15{fill:#FEFEFE;}
	.st16{fill:#134B1E;}
	.st17{fill:#FDF5EC;}
	.st18{fill:url(#SVGID_00000183210474337651570330000001980063855016530621_);}
	.st19{opacity:0.73;fill:#D3884A;}
	.st20{opacity:0.7;fill:#FDD258;}
	.st21{opacity:0.7;fill:#899663;}
	.st22{fill:#774F2C;}
	.st23{fill:#FDD258;}
	.st24{fill:url(#SVGID_00000178894417434178689880000002678701925307183291_);}
	.st25{fill:none;stroke:#000000;stroke-width:3.2176;stroke-linecap:round;stroke-linejoin:round;stroke-miterlimit:10;}
	.st26{fill:#AD8261;}
	.st27{filter:url(#Adobe_OpacityMaskFilter_00000179606004721424208980000010252453914977906326_);}
	.st28{fill:url(#SVGID_00000135651765151143874270000000262746391703217066_);}
	.st29{opacity:0.51;mask:url(#SVGID_00000102503009571233999590000004166325639998943153_);}
	.st30{opacity:0.51;}
	.st31{filter:url(#Adobe_OpacityMaskFilter_00000175305466532366007740000003891518191117800868_);}
	
		.st32{clip-path:url(#SVGID_00000150812378515464808340000009999232537979178136_);fill:url(#SVGID_00000052791925813001950310000014913965506013271487_);}
	.st33{clip-path:url(#SVGID_00000150812378515464808340000009999232537979178136_);fill:none;}
	.st34{fill:none;}
	.st35{filter:url(#Adobe_OpacityMaskFilter_00000116958275905422504950000016272973206483263386_);}
	.st36{fill:url(#SVGID_00000100360236418498848220000003862394096093083303_);}
	.st37{filter:url(#Adobe_OpacityMaskFilter_00000021819844836558478230000004128055780459918219_);}
	.st38{fill:url(#SVGID_00000167395759497753645000000005415144075533336762_);}
</style>
<path class="st19" d="M9.45-0.31c0,0,67.8,55.95,157.32,67c81,10,166.76-12,236.38-33.5s169.51-11.36,182.62-12.5c23-2,85-20,85-20
	L9.45-0.31z"/>
<path class="st20" d="M904.77,0.69v72.26c0,0-18-3.26-75,11.74c-28.16,7.41-65.05,27.03-104,29c-49.5,2.5-97.34-18.93-131.5-26.5
	c-35.18-7.8-66-23-121-36c-33.26-7.86-52.5-11.5-91.5-13.5c-46.94-2.41-131.08,12.14-188-1c-39-9-96-36-96-36h535H904.77z"/>
<path class="st21" d="M904.77,0.69v140.3c-61,17.7-183,0.7-244-41.3c-32.08-22.09-66.33-46.94-91-59c-45-22-131.11-40-137.55-40
	C425.77,0.69,904.77,0.69,904.77,0.69z"/>
</svg>
