<?xml version="1.0" encoding="UTF-8"?>
<svg id="Capa_1" data-name="Capa 1" xmlns="http://www.w3.org/2000/svg" viewBox="0 0 1097 132">
  <defs>
    <style>
      .cls-1 {
        fill: #899663;
      }

      .cls-1, .cls-2, .cls-3 {
        stroke-width: 0px;
      }

      .cls-1, .cls-3 {
        opacity: .7;
      }

      .cls-2 {
        fill: #d3884a;
        opacity: .73;
      }

      .cls-3 {
        fill: #fdd258;
      }
    </style>
  </defs>
  <path class="cls-2" d="M32.77,131.21h85.79s56.7,2,93.7,0c39.97-2.16,126,0,126,0,0,0,263-4,280,0s-197-21-197-21c0,0-147-31-176-36s-50.94-1-68.47,0-46.94,8.02-58.23,10.51c-11.3,2.49-48.02,17.49-56.66,25.49-8.64,8-29.13,21-29.13,21Z"/>
  <path class="cls-3" d="M1100.26,131.21H116.25s66.01-26,104.01-31c38-5,85.94,0,85.94,0,0,0,48.5,10.5,73.53,10s57.32,3.32,77.53,5c24,2,55,8.2,90.5,7.5,25.5-.5,56.98-4.22,96.99-8.11,40.01-3.89,100.51-22.22,100.51-22.22l51.5-16.67,49-12s21.96-4,62.48,0c40.52,4,73.52,13,73.52,13,0,0,30.57,12.72,61.29,19.86,30.71,7.14,56.21,6.53,56.21,6.53l1,28.11Z"/>
  <path class="cls-1" d="M1099.26-.19l1,103.77s-49.59-2.36-73-11.36c-39-15-111.01-27.92-124-29-12-1-27.06-1.66-51,1-18,2-39,6-61,14s-40,14-69,22c-28.76,7.93-57.48,11.66-77,14-13.21,1.59-40,4-53,5-12.75.98-29,5-51,4-28.3-1.29-72.68-6-72.68-6l-41.32-6s70-12,136-27,118-28,141-31,57.5-10.5,108.5-10.5,70,5,111,0,59-7,84-14S1099.26-.19,1099.26-.19Z"/>
</svg>