<?xml version="1.0" encoding="UTF-8"?>
<svg id="Capa_1" data-name="Capa 1" xmlns="http://www.w3.org/2000/svg" viewBox="0 0 1952 364">
  <defs>
    <style>
      .cls-1 {
        fill: #899663;
        opacity: .7;
      }

      .cls-1, .cls-2, .cls-3 {
        stroke-width: 0px;
      }

      .cls-2 {
        fill: #fdd258;
      }

      .cls-3 {
        fill: #d3884a;
        opacity: .73;
      }
    </style>
  </defs>
  <path class="cls-2" d="M273.52,239.91s90.18-96.29,188.83-74c110.65,25,161.17,135,460.82,110.75,62.99-5.1,130.09,22,157.97,28,27.88,6,98.5,10,126.38,13,27.88,3,76.2,8.98,113.37,11.49,37.17,2.51,64.99,3.44,103.11,8.98,38.13,5.54,338.8,27.71,209.94,24.73-8.26-.19-1626.63-1.19-1626.63-1.19,0,0,115.4-103.96,266.22-121.75Z"/>
  <path class="cls-3" d="M1949.44,148.47l2.65,220.43H2.43c88.97-29.28,72.55-28.81,92.76-34.81,39.36-11.69,70.41-20.18,86-24.44,15.59-4.26,32.28-7.31,54.39-10.78,22.12-3.47,34.03-.47,55.22.53,21.19,1,39.73,8,58.27,10,18.54,2,42.38,8,62.24,14,19.86,6,41.05,9,55.62,12s34.43,6,54.29,10c19.86,4,45.02,8,66.21,10,21.19,2,33.11,2,55.62,3,22.51,1,23.84,4,62.24,5,38.4,1,42.38,1,82.1,1,39.73,0,17.22-5,68.86,0,51.65,5,94.64-2.96,116.18-2.48s22.57-4.17,53.17-4.84c30.61-.68,35.9-5.68,72.98-8.68,37.08-3,37.08-4,70.19-9,33.11-5,68.86-8,94.02-15,25.16-7,59.59-11,79.46-16,19.86-5,57.14-10.77,76.91-17.88,19.77-7.12,51.55-15.12,75.38-22.12,23.84-7,39.73-12,60.92-19,21.19-7,62.24-25,74.16-30,11.92-5,35.76-15,59.59-23,23.84-8,35.76-10,60.92-17,25.16-7,41.05-12,63.56-17,22.51-5,109.91-13.85,135.74-13.93Z"/>
  <path class="cls-1" d="M1.29,368.66L.09,211.89s93.62.66,162.27,10.21c68.65,9.55,116.76,22.55,156.45,34.55,39.69,12,84.97,26.82,122.68,40,41.49,14.5,63.68,17.9,101.3,27.7,37.62,9.8,115.43,22.47,115.43,22.47,0,0,33.86,4.08,66.38,6.13,35.01,2.2,90.27,3.84,120.4,3.96,19.03.08,49.33-1.76,75.79-3.76,25.61-1.94,283.66-114.25,397.92-114.25,131.3,0,151.37,33.11,220.3,57.36,67.16,23.64,127.65-13.25,222.32-6.36,96.22,7,145.53,79,145.53,79l-1905.57-.25Z"/>
</svg>